<?xml version="1.0" encoding="UTF-8"?>
<svg id="Layer_1" data-name="Layer 1" xmlns="http://www.w3.org/2000/svg" version="1.1" viewBox="0 0 216 144">
  <defs>
    <style>
      .cls-1 {
        fill: #231f20;
      }

      .cls-1, .cls-2 {
        stroke-width: 0px;
      }

      .cls-2 {
        fill: #fff;
      }
    </style>
  </defs>
  <rect class="cls-1" x="-6" y="-3" width="228" height="153"/>
  <rect class="cls-1" x="226" y="-50" width="455" height="200"/>
  <g>
    <rect class="cls-2" x="357.94" y="56.65" width="304.79" height="39.84"/>
    <g>
      <path class="cls-2" d="M357.15,44.33L366.53.09h24.42l-1.83,8.85h-14.04l-1.71,7.84h12.92l-1.89,8.85h-12.92l-3.95,18.7h-10.38Z"/>
      <path class="cls-2" d="M385.94,44.33L395.32.09h10.38l-7.49,35.39h12.68l-1.89,8.85h-23.06Z"/>
      <path class="cls-2" d="M410.47,44.33L429.53.09h12.51l.24,44.24h-10.5l.35-8.61h-8.14l-3.07,8.61h-10.44ZM434.13,8.11h-.12l-7.25,19.82h6.02l1.36-19.82Z"/>
      <path class="cls-2" d="M450.17.09h26.9l-1.83,8.85h-8.38l-7.55,35.39h-10.38l7.55-35.39h-8.14l1.83-8.85Z"/>
      <path class="cls-2" d="M471.17,44.33L480.55.09h10.38l-7.49,35.39h12.68l-1.89,8.85h-23.06Z"/>
      <path class="cls-2" d="M495.71,44.33L514.76.09h12.51l.24,44.24h-10.5l.35-8.61h-8.14l-3.07,8.61h-10.44ZM519.36,8.11h-.12l-7.25,19.82h6.02l1.36-19.82Z"/>
      <path class="cls-2" d="M544.79,19.55l-.12.12-4.31,24.66h-9.85L539.89.09h10.68l2.77,24.71h.18L557.76.09h9.85l-9.38,44.24h-10.62l-2.83-24.77Z"/>
      <path class="cls-2" d="M563.48,44.33L572.86.09h11.27c2.52,0,4.7.13,6.55.38,1.85.26,3.42.82,4.72,1.68,1.06.71,1.82,1.59,2.27,2.65.45,1.06.68,2.26.68,3.6s-.2,2.85-.59,4.66l-4.19,19.64c-1.02,4.56-3.18,7.75-6.49,9.56-1.41.83-2.9,1.38-4.45,1.65-1.55.28-3.27.41-5.16.41h-13.98ZM575.58,36.36h.71c.31.04.53.06.65.06,2.56,0,4.26-.59,5.1-1.77.85-1.18,1.56-3.36,2.15-6.55l3.07-14.45c.2-.98.3-1.81.3-2.48,0-1.3-.42-2.13-1.27-2.51-.85-.37-2.41-.58-4.69-.62l-6.02,28.31Z"/>
      <path class="cls-2" d="M596.28,44.33L605.66.09h23.77l-1.83,8.85h-13.39l-1.77,8.14h12.98l-1.89,8.85h-12.98l-2.01,9.55h14.1l-1.89,8.85h-24.48Z"/>
      <path class="cls-2" d="M635.92,44.33h-10.38L634.92.09h15.16c3.58,0,6.25.64,8.02,1.92s2.65,3.33,2.65,6.16c0,1.22-.18,2.6-.53,4.13-.51,2.52-1.34,4.59-2.48,6.22-1.14,1.63-2.85,2.92-5.13,3.86v.12c1.22.28,2.18.82,2.89,1.62.71.81,1.06,1.84,1.06,3.1v.47c-.04.2-.06.37-.06.53-.12.83-.37,2.48-.77,4.95-.39,2.24-.7,4.11-.91,5.6s-.32,2.63-.32,3.42c.12.67.33,1.18.65,1.53l-.12.59h-11.33c-.08-.59-.12-1.1-.12-1.53,0-.12.02-.27.06-.47v-.53c.2-1.14.53-2.77,1-4.9.51-2.56.83-4.34.94-5.37,0-.12.02-.35.06-.71v-.59c0-1.02-.2-1.82-.59-2.39-.39-.57-1.06-.89-2.01-.97h-3.42l-3.72,17.46ZM641.35,18.9h3.54c1.38,0,2.45-.51,3.21-1.53.77-1.02,1.31-2.34,1.62-3.95.2-.9.29-1.67.29-2.3,0-1.26-.44-2.08-1.33-2.48-.89-.39-2.57-.59-5.04-.59l-2.3,10.85Z"/>
    </g>
    <g>
      <path class="cls-1" d="M386.88,77.82c.09.84.45,1.43,1.08,1.76.63.33,1.57.5,2.82.5,1.64,0,2.79-.23,3.45-.68.41-.26.61-.62.61-1.08,0-.35-.15-.6-.46-.77-.31-.17-.77-.28-1.39-.34l-6.07-.68c-1.72-.2-3.02-.61-3.92-1.23-.9-.62-1.34-1.55-1.34-2.79,0-.81.17-1.56.5-2.26.33-.69.81-1.29,1.44-1.78.9-.72,2.12-1.23,3.65-1.53,1.53-.3,3.45-.45,5.77-.45,3.08,0,5.43.35,7.03,1.06,1.6.71,2.41,1.91,2.41,3.61,0,.24-.02.5-.07.77h-6.71c-.06-.65-.39-1.11-.99-1.4s-1.48-.43-2.64-.43c-1.42,0-2.43.2-3.05.59-.41.25-.61.57-.61.95,0,.3.15.52.44.67.29.14.79.25,1.48.33l6.37.61c1.72.17,3.01.56,3.88,1.17.87.62,1.31,1.54,1.31,2.78,0,.98-.21,1.9-.62,2.78s-1,1.57-1.75,2.08c-.95.63-2.19,1.07-3.74,1.32-1.54.25-3.54.37-5.99.37-2.17,0-3.96-.14-5.36-.43-1.41-.29-2.48-.79-3.23-1.5-.74-.71-1.12-1.7-1.12-2.95,0-.33.02-.68.07-1.04h6.75Z"/>
      <path class="cls-1" d="M440.03,71.61h-7.29l-2.21,11.56h-5.83l2.21-11.56h-7.29l.88-4.56h20.43l-.9,4.56Z"/>
      <path class="cls-1" d="M466.58,83.73c-6.94,0-10.41-2.29-10.41-6.86,0-1.34.24-2.63.73-3.87.49-1.24,1.18-2.31,2.09-3.22,2.2-2.2,5.68-3.3,10.45-3.3,6.94,0,10.41,2.29,10.41,6.86,0,1.34-.24,2.63-.73,3.87-.49,1.24-1.19,2.31-2.09,3.22-2.2,2.2-5.68,3.3-10.45,3.3ZM468.84,70.86c-2.2,0-3.86.68-4.99,2.03-.81.96-1.22,2.05-1.22,3.25,0,1.01.37,1.8,1.12,2.36.74.56,1.89.85,3.44.85,2.21,0,3.88-.68,5.01-2.03.81-.98,1.22-2.06,1.22-3.25,0-1.01-.37-1.8-1.12-2.36-.74-.56-1.9-.85-3.46-.85Z"/>
      <path class="cls-1" d="M517.63,83.17h-6.5l-2.01-4.85h-6.14l-.93,4.85h-5.83l3.12-16.12h14.31c1.82,0,3.24.37,4.26,1.11,1.02.74,1.52,1.78,1.52,3.12,0,1.81-.5,3.21-1.49,4.22-.38.38-.8.69-1.26.95-.47.26-1.04.45-1.72.59l-.04.18,2.71,5.96ZM512.39,73.82c.32-.36.47-.8.47-1.31,0-.75-.5-1.13-1.51-1.13h-7.04l-.59,3.07h7.02c.71,0,1.26-.21,1.65-.63Z"/>
      <path class="cls-1" d="M551.3,80.82h-9.05l-1.58,2.35h-6.64l11.27-16.12h7.77l5.08,16.12h-6.14l-.7-2.35ZM550.1,76.93l-1.6-5.28h-.14l-3.54,5.28h5.28Z"/>
      <path class="cls-1" d="M591.1,72.8c-.14-.48-.47-.93-1.02-1.33-.54-.41-1.49-.61-2.84-.61-2.26,0-3.94.69-5.03,2.06-.36.45-.64.98-.85,1.59s-.3,1.2-.3,1.77c0,2.17,1.56,3.25,4.7,3.25,1.02,0,1.9-.12,2.63-.35.73-.23,1.29-.5,1.68-.81.39-.31.62-.58.7-.8h-4.2l.65-3.34h10.59l-1.72,8.94h-4.02l.36-1.83c-1.61,1.6-4.06,2.39-7.34,2.39-6.99,0-10.48-2.29-10.48-6.86,0-1.31.24-2.59.73-3.84.49-1.25,1.18-2.33,2.09-3.23,2.2-2.21,5.68-3.32,10.45-3.32,3.45,0,6,.5,7.67,1.5,1.66,1,2.5,2.38,2.5,4.14,0,.15-.02.38-.05.68h-6.91Z"/>
      <path class="cls-1" d="M622.31,73.16h11.94l-.7,3.5h-11.94l-.5,2.6h12.71l-.74,3.91h-18.54l3.12-16.12h18.31l-.75,3.82h-12.49l-.43,2.3Z"/>
    </g>
    <path class="cls-2" d="M241.16.87v94.99c0,3.74,3.03,6.77,6.77,6.77h94.99c3.74,0,6.77-3.03,6.77-6.77V.87c0-3.74-3.03-6.77-6.77-6.77h-94.99c-3.74,0-6.77,3.03-6.77,6.77ZM323.68,85.64h-56.51v-5.38h56.51v5.38ZM323.68,78.02h-56.51v-5.38h56.51v5.38ZM323.68,70.41h-56.51v-5.38h56.51v5.38ZM323.68,62.79h-56.51v-5.38h56.51v5.38ZM335.15,47.53v38.11h-8.89v-30.47h-61.65v30.47h-8.89v-38.11h-8.84l48.56-36.43,48.56,36.43h-8.84Z"/>
  </g>
  <g>
    <rect class="cls-2" x="64.93" y="75.8" width="139.64" height="18.25"/>
    <g>
      <path class="cls-2" d="M64.57,70.15l4.3-20.27h11.19l-.84,4.05h-6.43l-.78,3.59h5.92l-.86,4.05h-5.92l-1.81,8.57h-4.76Z"/>
      <path class="cls-2" d="M77.76,70.15l4.3-20.27h4.76l-3.43,16.21h5.81l-.86,4.05h-10.57Z"/>
      <path class="cls-2" d="M89,70.15l8.73-20.27h5.73l.11,20.27h-4.81l.16-3.95h-3.73l-1.41,3.95h-4.78ZM99.83,53.56h-.05l-3.32,9.08h2.76l.62-9.08Z"/>
      <path class="cls-2" d="M107.19,49.88h12.32l-.84,4.05h-3.84l-3.46,16.21h-4.76l3.46-16.21h-3.73l.84-4.05Z"/>
      <path class="cls-2" d="M116.81,70.15l4.3-20.27h4.76l-3.43,16.21h5.81l-.86,4.05h-10.57Z"/>
      <path class="cls-2" d="M128.05,70.15l8.73-20.27h5.73l.11,20.27h-4.81l.16-3.95h-3.73l-1.41,3.95h-4.78ZM138.89,53.56h-.05l-3.32,9.08h2.76l.62-9.08Z"/>
      <path class="cls-2" d="M150.53,58.8l-.05.05-1.97,11.3h-4.51l4.3-20.27h4.89l1.27,11.32h.08l1.95-11.32h4.51l-4.3,20.27h-4.86l-1.3-11.35Z"/>
      <path class="cls-2" d="M159.1,70.15l4.3-20.27h5.16c1.15,0,2.15.06,3,.18.85.12,1.57.37,2.16.77.49.32.83.73,1.04,1.22.21.49.31,1.04.31,1.65s-.09,1.31-.27,2.13l-1.92,9c-.47,2.09-1.46,3.55-2.97,4.38-.65.38-1.33.63-2.04.76-.71.13-1.5.19-2.36.19h-6.41ZM164.64,66.5h.32c.14.02.24.03.3.03,1.17,0,1.95-.27,2.34-.81.39-.54.72-1.54.99-3l1.4-6.62c.09-.45.14-.83.14-1.14,0-.59-.19-.98-.58-1.15-.39-.17-1.1-.27-2.15-.28l-2.76,12.97Z"/>
      <path class="cls-2" d="M174.12,70.15l4.3-20.27h10.89l-.84,4.05h-6.13l-.81,3.73h5.95l-.86,4.05h-5.95l-.92,4.38h6.46l-.86,4.05h-11.22Z"/>
      <path class="cls-2" d="M192.29,70.15h-4.76l4.3-20.27h6.95c1.64,0,2.87.29,3.68.88s1.22,1.53,1.22,2.82c0,.56-.08,1.19-.24,1.89-.23,1.15-.61,2.1-1.14,2.85-.52.75-1.31,1.34-2.35,1.77v.05c.56.13,1,.37,1.32.74.32.37.49.84.49,1.42v.22c-.02.09-.03.17-.03.24-.05.38-.17,1.13-.35,2.27-.18,1.03-.32,1.88-.42,2.57s-.15,1.21-.15,1.57c.05.31.15.54.3.7l-.05.27h-5.19c-.04-.27-.05-.5-.05-.7,0-.05,0-.13.03-.22v-.24c.09-.52.24-1.27.46-2.24.23-1.17.38-1.99.43-2.46,0-.05,0-.16.03-.32v-.27c0-.47-.09-.83-.27-1.09-.18-.26-.49-.41-.92-.45h-1.57l-1.7,8ZM194.77,58.5h1.62c.63,0,1.12-.23,1.47-.7.35-.47.6-1.07.74-1.81.09-.41.14-.77.14-1.05,0-.58-.2-.95-.61-1.14-.41-.18-1.18-.27-2.31-.27l-1.05,4.97Z"/>
    </g>
    <g>
      <path class="cls-1" d="M78.19,85.49c.04.39.21.66.5.81.29.15.72.23,1.29.23.75,0,1.28-.1,1.58-.31.19-.12.28-.28.28-.5,0-.16-.07-.28-.21-.35-.14-.08-.35-.13-.64-.15l-2.78-.31c-.79-.09-1.38-.28-1.79-.56-.41-.29-.62-.71-.62-1.28,0-.37.08-.72.23-1.03.15-.32.37-.59.66-.82.41-.33.97-.57,1.67-.7.7-.14,1.58-.21,2.64-.21,1.41,0,2.49.16,3.22.49.74.32,1.1.88,1.1,1.66,0,.11-.01.23-.03.35h-3.07c-.03-.3-.18-.51-.46-.64s-.68-.2-1.21-.2c-.65,0-1.11.09-1.4.27-.19.12-.28.26-.28.43,0,.14.07.24.2.31.13.07.36.12.68.15l2.92.28c.79.08,1.38.26,1.78.54.4.28.6.71.6,1.27,0,.45-.09.87-.28,1.27s-.46.72-.8.95c-.43.29-1.01.49-1.71.61-.71.11-1.62.17-2.75.17-.99,0-1.81-.07-2.46-.2-.64-.13-1.14-.36-1.48-.69-.34-.33-.51-.78-.51-1.35,0-.15.01-.31.03-.48h3.09Z"/>
      <path class="cls-1" d="M102.54,82.65h-3.34l-1.01,5.3h-2.67l1.01-5.3h-3.34l.4-2.09h9.36l-.41,2.09Z"/>
      <path class="cls-1" d="M114.7,88.2c-3.18,0-4.77-1.05-4.77-3.14,0-.61.11-1.21.34-1.77.22-.57.54-1.06.96-1.47,1.01-1.01,2.6-1.51,4.79-1.51,3.18,0,4.77,1.05,4.77,3.14,0,.61-.11,1.21-.34,1.77-.22.57-.54,1.06-.96,1.47-1.01,1.01-2.6,1.51-4.79,1.51ZM115.74,82.3c-1.01,0-1.77.31-2.29.93-.37.44-.56.94-.56,1.49,0,.46.17.82.51,1.08.34.26.87.39,1.58.39,1.01,0,1.78-.31,2.3-.93.37-.45.56-.95.56-1.49,0-.46-.17-.82-.51-1.08-.34-.26-.87-.39-1.59-.39Z"/>
      <path class="cls-1" d="M138.09,87.94h-2.98l-.92-2.22h-2.81l-.42,2.22h-2.67l1.43-7.39h6.56c.83,0,1.49.17,1.95.51.47.34.7.81.7,1.43,0,.83-.23,1.47-.68,1.93-.17.17-.37.32-.58.43-.21.12-.48.21-.79.27l-.02.08,1.24,2.73ZM135.69,83.66c.14-.17.22-.37.22-.6,0-.34-.23-.52-.69-.52h-3.23l-.27,1.41h3.22c.32,0,.58-.1.76-.29Z"/>
      <path class="cls-1" d="M153.52,86.87h-4.15l-.72,1.08h-3.04l5.16-7.39h3.56l2.33,7.39h-2.81l-.32-1.08ZM152.97,85.09l-.73-2.42h-.06l-1.62,2.42h2.42Z"/>
      <path class="cls-1" d="M171.75,83.2c-.06-.22-.22-.42-.47-.61-.25-.19-.68-.28-1.3-.28-1.03,0-1.8.31-2.31.94-.17.21-.29.45-.39.73s-.14.55-.14.81c0,.99.72,1.49,2.15,1.49.47,0,.87-.05,1.21-.16.33-.11.59-.23.77-.37.18-.14.29-.26.32-.37h-1.92l.3-1.53h4.85l-.79,4.1h-1.84l.17-.84c-.74.73-1.86,1.1-3.36,1.1-3.2,0-4.8-1.05-4.8-3.14,0-.6.11-1.19.34-1.76.22-.57.54-1.07.96-1.48,1.01-1.01,2.6-1.52,4.79-1.52,1.58,0,2.75.23,3.51.69.76.46,1.14,1.09,1.14,1.9,0,.07,0,.17-.02.31h-3.17Z"/>
      <path class="cls-1" d="M186.05,83.36h5.47l-.32,1.6h-5.47l-.23,1.19h5.82l-.34,1.79h-8.49l1.43-7.39h8.39l-.34,1.75h-5.72l-.2,1.06Z"/>
    </g>
    <path class="cls-2" d="M11.43,50.24v43.52c0,1.71,1.39,3.1,3.1,3.1h43.52c1.71,0,3.1-1.39,3.1-3.1v-43.52c0-1.71-1.39-3.1-3.1-3.1H14.53c-1.71,0-3.1,1.39-3.1,3.1ZM49.24,89.07h-25.89v-2.46h25.89v2.46ZM49.24,85.59h-25.89v-2.46h25.89v2.46ZM49.24,82.1h-25.89v-2.46h25.89v2.46ZM49.24,78.61h-25.89v-2.46h25.89v2.46ZM54.49,71.62v17.46h-4.07v-13.96h-28.25v13.96h-4.07v-17.46h-4.05l22.25-16.69,22.25,16.69h-4.05Z"/>
  </g>
  <g>
    <rect class="cls-1" x="357.94" y="-152.35" width="304.79" height="39.84"/>
    <g>
      <path class="cls-1" d="M357.15-164.67l9.38-44.24h24.42l-1.83,8.85h-14.04l-1.71,7.84h12.92l-1.89,8.85h-12.92l-3.95,18.7h-10.38Z"/>
      <path class="cls-1" d="M385.94-164.67l9.38-44.24h10.38l-7.49,35.39h12.68l-1.89,8.85h-23.06Z"/>
      <path class="cls-1" d="M410.47-164.67l19.05-44.24h12.51l.24,44.24h-10.5l.35-8.61h-8.14l-3.07,8.61h-10.44ZM434.13-200.89h-.12l-7.25,19.82h6.02l1.36-19.82Z"/>
      <path class="cls-1" d="M450.17-208.91h26.9l-1.83,8.85h-8.38l-7.55,35.39h-10.38l7.55-35.39h-8.14l1.83-8.85Z"/>
      <path class="cls-1" d="M471.17-164.67l9.38-44.24h10.38l-7.49,35.39h12.68l-1.89,8.85h-23.06Z"/>
      <path class="cls-1" d="M495.71-164.67l19.05-44.24h12.51l.24,44.24h-10.5l.35-8.61h-8.14l-3.07,8.61h-10.44ZM519.36-200.89h-.12l-7.25,19.82h6.02l1.36-19.82Z"/>
      <path class="cls-1" d="M544.79-189.45l-.12.12-4.31,24.66h-9.85l9.38-44.24h10.68l2.77,24.71h.18l4.25-24.71h9.85l-9.38,44.24h-10.62l-2.83-24.77Z"/>
      <path class="cls-1" d="M563.48-164.67l9.38-44.24h11.27c2.52,0,4.7.13,6.55.38,1.85.26,3.42.82,4.72,1.68,1.06.71,1.82,1.59,2.27,2.65.45,1.06.68,2.26.68,3.6s-.2,2.85-.59,4.66l-4.19,19.64c-1.02,4.56-3.18,7.75-6.49,9.56-1.41.83-2.9,1.38-4.45,1.65-1.55.28-3.27.41-5.16.41h-13.98ZM575.58-172.64h.71c.31.04.53.06.65.06,2.56,0,4.26-.59,5.1-1.77.85-1.18,1.56-3.36,2.15-6.55l3.07-14.45c.2-.98.3-1.81.3-2.48,0-1.3-.42-2.13-1.27-2.51-.85-.37-2.41-.58-4.69-.62l-6.02,28.31Z"/>
      <path class="cls-1" d="M596.28-164.67l9.38-44.24h23.77l-1.83,8.85h-13.39l-1.77,8.14h12.98l-1.89,8.85h-12.98l-2.01,9.55h14.1l-1.89,8.85h-24.48Z"/>
      <path class="cls-1" d="M635.92-164.67h-10.38l9.38-44.24h15.16c3.58,0,6.25.64,8.02,1.92s2.65,3.33,2.65,6.16c0,1.22-.18,2.6-.53,4.13-.51,2.52-1.34,4.59-2.48,6.22-1.14,1.63-2.85,2.92-5.13,3.86v.12c1.22.28,2.18.82,2.89,1.62.71.81,1.06,1.84,1.06,3.1v.47c-.04.2-.06.37-.06.53-.12.83-.37,2.48-.77,4.95-.39,2.24-.7,4.11-.91,5.6s-.32,2.63-.32,3.42c.12.67.33,1.18.65,1.53l-.12.59h-11.33c-.08-.59-.12-1.1-.12-1.53,0-.12.02-.27.06-.47v-.53c.2-1.14.53-2.77,1-4.9.51-2.56.83-4.34.94-5.37,0-.12.02-.35.06-.71v-.59c0-1.02-.2-1.82-.59-2.39-.39-.57-1.06-.89-2.01-.97h-3.42l-3.72,17.46ZM641.35-190.1h3.54c1.38,0,2.45-.51,3.21-1.53.77-1.02,1.31-2.34,1.62-3.95.2-.9.29-1.67.29-2.3,0-1.26-.44-2.08-1.33-2.48-.89-.39-2.57-.59-5.04-.59l-2.3,10.85Z"/>
    </g>
    <g>
      <path class="cls-2" d="M386.88-131.18c.09.84.45,1.43,1.08,1.76.63.33,1.57.5,2.82.5,1.64,0,2.79-.23,3.45-.68.41-.26.61-.62.61-1.08,0-.35-.15-.6-.46-.77-.31-.17-.77-.28-1.39-.34l-6.07-.68c-1.72-.2-3.02-.61-3.92-1.23-.9-.62-1.34-1.55-1.34-2.79,0-.81.17-1.56.5-2.26.33-.69.81-1.29,1.44-1.78.9-.72,2.12-1.23,3.65-1.53,1.53-.3,3.45-.45,5.77-.45,3.08,0,5.43.35,7.03,1.06,1.6.71,2.41,1.91,2.41,3.61,0,.24-.02.5-.07.77h-6.71c-.06-.65-.39-1.11-.99-1.4s-1.48-.43-2.64-.43c-1.42,0-2.43.2-3.05.59-.41.25-.61.57-.61.95,0,.3.15.52.44.67.29.14.79.25,1.48.33l6.37.61c1.72.17,3.01.56,3.88,1.17.87.62,1.31,1.54,1.31,2.78,0,.98-.21,1.9-.62,2.78s-1,1.57-1.75,2.08c-.95.63-2.19,1.07-3.74,1.32-1.54.25-3.54.37-5.99.37-2.17,0-3.96-.14-5.36-.43-1.41-.29-2.48-.79-3.23-1.5-.74-.71-1.12-1.7-1.12-2.95,0-.33.02-.68.07-1.04h6.75Z"/>
      <path class="cls-2" d="M440.03-137.39h-7.29l-2.21,11.56h-5.83l2.21-11.56h-7.29l.88-4.56h20.43l-.9,4.56Z"/>
      <path class="cls-2" d="M466.58-125.27c-6.94,0-10.41-2.29-10.41-6.86,0-1.34.24-2.63.73-3.87.49-1.24,1.18-2.31,2.09-3.22,2.2-2.2,5.68-3.3,10.45-3.3,6.94,0,10.41,2.29,10.41,6.86,0,1.34-.24,2.63-.73,3.87-.49,1.24-1.19,2.31-2.09,3.22-2.2,2.2-5.68,3.3-10.45,3.3ZM468.84-138.14c-2.2,0-3.86.68-4.99,2.03-.81.96-1.22,2.05-1.22,3.25,0,1.01.37,1.8,1.12,2.36.74.56,1.89.85,3.44.85,2.21,0,3.88-.68,5.01-2.03.81-.98,1.22-2.06,1.22-3.25,0-1.01-.37-1.8-1.12-2.36-.74-.56-1.9-.85-3.46-.85Z"/>
      <path class="cls-2" d="M517.63-125.83h-6.5l-2.01-4.85h-6.14l-.93,4.85h-5.83l3.12-16.12h14.31c1.82,0,3.24.37,4.26,1.11,1.02.74,1.52,1.78,1.52,3.12,0,1.81-.5,3.21-1.49,4.22-.38.38-.8.69-1.26.95-.47.26-1.04.45-1.72.59l-.04.18,2.71,5.96ZM512.39-135.18c.32-.36.47-.8.47-1.31,0-.75-.5-1.13-1.51-1.13h-7.04l-.59,3.07h7.02c.71,0,1.26-.21,1.65-.63Z"/>
      <path class="cls-2" d="M551.3-128.18h-9.05l-1.58,2.35h-6.64l11.27-16.12h7.77l5.08,16.12h-6.14l-.7-2.35ZM550.1-132.07l-1.6-5.28h-.14l-3.54,5.28h5.28Z"/>
      <path class="cls-2" d="M591.1-136.2c-.14-.48-.47-.93-1.02-1.33-.54-.41-1.49-.61-2.84-.61-2.26,0-3.94.69-5.03,2.06-.36.45-.64.98-.85,1.59s-.3,1.2-.3,1.77c0,2.17,1.56,3.25,4.7,3.25,1.02,0,1.9-.12,2.63-.35.73-.23,1.29-.5,1.68-.81.39-.31.62-.58.7-.8h-4.2l.65-3.34h10.59l-1.72,8.94h-4.02l.36-1.83c-1.61,1.6-4.06,2.39-7.34,2.39-6.99,0-10.48-2.29-10.48-6.86,0-1.31.24-2.59.73-3.84.49-1.25,1.18-2.33,2.09-3.23,2.2-2.21,5.68-3.32,10.45-3.32,3.45,0,6,.5,7.67,1.5,1.66,1,2.5,2.38,2.5,4.14,0,.15-.02.38-.05.68h-6.91Z"/>
      <path class="cls-2" d="M622.31-135.84h11.94l-.7,3.5h-11.94l-.5,2.6h12.71l-.74,3.91h-18.54l3.12-16.12h18.31l-.75,3.82h-12.49l-.43,2.3Z"/>
    </g>
    <path class="cls-1" d="M241.16-208.13v94.99c0,3.74,3.03,6.77,6.77,6.77h94.99c3.74,0,6.77-3.03,6.77-6.77v-94.99c0-3.74-3.03-6.77-6.77-6.77h-94.99c-3.74,0-6.77,3.03-6.77,6.77ZM323.68-123.36h-56.51v-5.38h56.51v5.38ZM323.68-130.98h-56.51v-5.38h56.51v5.38ZM323.68-138.59h-56.51v-5.38h56.51v5.38ZM323.68-146.21h-56.51v-5.38h56.51v5.38ZM335.15-161.47v38.11h-8.89v-30.47h-61.65v30.47h-8.89v-38.11h-8.84l48.56-36.43,48.56,36.43h-8.84Z"/>
  </g>
  <g>
    <rect class="cls-1" x="64.93" y="-133.2" width="139.64" height="18.25"/>
    <g>
      <path class="cls-1" d="M64.57-138.85l4.3-20.27h11.19l-.84,4.05h-6.43l-.78,3.59h5.92l-.86,4.05h-5.92l-1.81,8.57h-4.76Z"/>
      <path class="cls-1" d="M77.76-138.85l4.3-20.27h4.76l-3.43,16.21h5.81l-.86,4.05h-10.57Z"/>
      <path class="cls-1" d="M89-138.85l8.73-20.27h5.73l.11,20.27h-4.81l.16-3.95h-3.73l-1.41,3.95h-4.78ZM99.83-155.44h-.05l-3.32,9.08h2.76l.62-9.08Z"/>
      <path class="cls-1" d="M107.19-159.12h12.32l-.84,4.05h-3.84l-3.46,16.21h-4.76l3.46-16.21h-3.73l.84-4.05Z"/>
      <path class="cls-1" d="M116.81-138.85l4.3-20.27h4.76l-3.43,16.21h5.81l-.86,4.05h-10.57Z"/>
      <path class="cls-1" d="M128.05-138.85l8.73-20.27h5.73l.11,20.27h-4.81l.16-3.95h-3.73l-1.41,3.95h-4.78ZM138.89-155.44h-.05l-3.32,9.08h2.76l.62-9.08Z"/>
      <path class="cls-1" d="M150.53-150.2l-.05.05-1.97,11.3h-4.51l4.3-20.27h4.89l1.27,11.32h.08l1.95-11.32h4.51l-4.3,20.27h-4.86l-1.3-11.35Z"/>
      <path class="cls-1" d="M159.1-138.85l4.3-20.27h5.16c1.15,0,2.15.06,3,.18.85.12,1.57.37,2.16.77.49.32.83.73,1.04,1.22.21.49.31,1.04.31,1.65s-.09,1.31-.27,2.13l-1.92,9c-.47,2.09-1.46,3.55-2.97,4.38-.65.38-1.33.63-2.04.76-.71.13-1.5.19-2.36.19h-6.41ZM164.64-142.5h.32c.14.02.24.03.3.03,1.17,0,1.95-.27,2.34-.81.39-.54.72-1.54.99-3l1.4-6.62c.09-.45.14-.83.14-1.14,0-.59-.19-.98-.58-1.15-.39-.17-1.1-.27-2.15-.28l-2.76,12.97Z"/>
      <path class="cls-1" d="M174.12-138.85l4.3-20.27h10.89l-.84,4.05h-6.13l-.81,3.73h5.95l-.86,4.05h-5.95l-.92,4.38h6.46l-.86,4.05h-11.22Z"/>
      <path class="cls-1" d="M192.29-138.85h-4.76l4.3-20.27h6.95c1.64,0,2.87.29,3.68.88s1.22,1.53,1.22,2.82c0,.56-.08,1.19-.24,1.89-.23,1.15-.61,2.1-1.14,2.85-.52.75-1.31,1.34-2.35,1.77v.05c.56.13,1,.37,1.32.74.32.37.49.84.49,1.42v.22c-.02.09-.03.17-.03.24-.05.38-.17,1.13-.35,2.27-.18,1.03-.32,1.88-.42,2.57s-.15,1.21-.15,1.57c.05.31.15.54.3.7l-.05.27h-5.19c-.04-.27-.05-.5-.05-.7,0-.05,0-.13.03-.22v-.24c.09-.52.24-1.27.46-2.24.23-1.17.38-1.99.43-2.46,0-.05,0-.16.03-.32v-.27c0-.47-.09-.83-.27-1.09-.18-.26-.49-.41-.92-.45h-1.57l-1.7,8ZM194.77-150.5h1.62c.63,0,1.12-.23,1.47-.7.35-.47.6-1.07.74-1.81.09-.41.14-.77.14-1.05,0-.58-.2-.95-.61-1.14-.41-.18-1.18-.27-2.31-.27l-1.05,4.97Z"/>
    </g>
    <g>
      <path class="cls-2" d="M78.19-123.51c.04.39.21.66.5.81.29.15.72.23,1.29.23.75,0,1.28-.1,1.58-.31.19-.12.28-.28.28-.5,0-.16-.07-.28-.21-.35-.14-.08-.35-.13-.64-.15l-2.78-.31c-.79-.09-1.38-.28-1.79-.56-.41-.29-.62-.71-.62-1.28,0-.37.08-.72.23-1.03.15-.32.37-.59.66-.82.41-.33.97-.57,1.67-.7.7-.14,1.58-.21,2.64-.21,1.41,0,2.49.16,3.22.49.74.32,1.1.88,1.1,1.66,0,.11-.01.23-.03.35h-3.07c-.03-.3-.18-.51-.46-.64s-.68-.2-1.21-.2c-.65,0-1.11.09-1.4.27-.19.12-.28.26-.28.43,0,.14.07.24.2.31.13.07.36.12.68.15l2.92.28c.79.08,1.38.26,1.78.54.4.28.6.71.6,1.27,0,.45-.09.87-.28,1.27s-.46.72-.8.95c-.43.29-1.01.49-1.71.61-.71.11-1.62.17-2.75.17-.99,0-1.81-.07-2.46-.2-.64-.13-1.14-.36-1.48-.69-.34-.33-.51-.78-.51-1.35,0-.15.01-.31.03-.48h3.09Z"/>
      <path class="cls-2" d="M102.54-126.35h-3.34l-1.01,5.3h-2.67l1.01-5.3h-3.34l.4-2.09h9.36l-.41,2.09Z"/>
      <path class="cls-2" d="M114.7-120.8c-3.18,0-4.77-1.05-4.77-3.14,0-.61.11-1.21.34-1.77.22-.57.54-1.06.96-1.47,1.01-1.01,2.6-1.51,4.79-1.51,3.18,0,4.77,1.05,4.77,3.14,0,.61-.11,1.21-.34,1.77-.22.57-.54,1.06-.96,1.47-1.01,1.01-2.6,1.51-4.79,1.51ZM115.74-126.7c-1.01,0-1.77.31-2.29.93-.37.44-.56.94-.56,1.49,0,.46.17.82.51,1.08.34.26.87.39,1.58.39,1.01,0,1.78-.31,2.3-.93.37-.45.56-.95.56-1.49,0-.46-.17-.82-.51-1.08-.34-.26-.87-.39-1.59-.39Z"/>
      <path class="cls-2" d="M138.09-121.06h-2.98l-.92-2.22h-2.81l-.42,2.22h-2.67l1.43-7.39h6.56c.83,0,1.49.17,1.95.51.47.34.7.81.7,1.43,0,.83-.23,1.47-.68,1.93-.17.17-.37.32-.58.43-.21.12-.48.21-.79.27l-.02.08,1.24,2.73ZM135.69-125.34c.14-.17.22-.37.22-.6,0-.34-.23-.52-.69-.52h-3.23l-.27,1.41h3.22c.32,0,.58-.1.76-.29Z"/>
      <path class="cls-2" d="M153.52-122.13h-4.15l-.72,1.08h-3.04l5.16-7.39h3.56l2.33,7.39h-2.81l-.32-1.08ZM152.97-123.91l-.73-2.42h-.06l-1.62,2.42h2.42Z"/>
      <path class="cls-2" d="M171.75-125.8c-.06-.22-.22-.42-.47-.61-.25-.19-.68-.28-1.3-.28-1.03,0-1.8.31-2.31.94-.17.21-.29.45-.39.73s-.14.55-.14.81c0,.99.72,1.49,2.15,1.49.47,0,.87-.05,1.21-.16.33-.11.59-.23.77-.37.18-.14.29-.26.32-.37h-1.92l.3-1.53h4.85l-.79,4.1h-1.84l.17-.84c-.74.73-1.86,1.1-3.36,1.1-3.2,0-4.8-1.05-4.8-3.14,0-.6.11-1.19.34-1.76.22-.57.54-1.07.96-1.48,1.01-1.01,2.6-1.52,4.79-1.52,1.58,0,2.75.23,3.51.69.76.46,1.14,1.09,1.14,1.9,0,.07,0,.17-.02.31h-3.17Z"/>
      <path class="cls-2" d="M186.05-125.64h5.47l-.32,1.6h-5.47l-.23,1.19h5.82l-.34,1.79h-8.49l1.43-7.39h8.39l-.34,1.75h-5.72l-.2,1.06Z"/>
    </g>
    <path class="cls-1" d="M11.43-158.76v43.52c0,1.71,1.39,3.1,3.1,3.1h43.52c1.71,0,3.1-1.39,3.1-3.1v-43.52c0-1.71-1.39-3.1-3.1-3.1H14.53c-1.71,0-3.1,1.39-3.1,3.1ZM49.24-119.93h-25.89v-2.46h25.89v2.46ZM49.24-123.41h-25.89v-2.46h25.89v2.46ZM49.24-126.9h-25.89v-2.46h25.89v2.46ZM49.24-130.39h-25.89v-2.46h25.89v2.46ZM54.49-137.38v17.46h-4.07v-13.96h-28.25v13.96h-4.07v-17.46h-4.05l22.25-16.69,22.25,16.69h-4.05Z"/>
  </g>
</svg>